<?xml version="1.0" encoding="UTF-8" standalone="no"?>
<!-- Created with Inkscape (http://www.inkscape.org/) -->

<svg width="256mm"
     height="256mm"
     viewBox="0 0 102.4 102.4"
     version="1.1"
     id="svg1"
     xml:space="preserve"
     inkscape:version="1.4.2 (ebf0e940, 2025-05-08)"
     sodipodi:docname="logo.svg"
     xmlns:inkscape="http://www.inkscape.org/namespaces/inkscape"
     xmlns:sodipodi="http://sodipodi.sourceforge.net/DTD/sodipodi-0.dtd"
     xmlns="http://www.w3.org/2000/svg"
     xmlns:svg="http://www.w3.org/2000/svg">
    <sodipodi:namedview
            id="namedview1"
            pagecolor="#ffffff"
            bordercolor="#000000"
            borderopacity="0.25"
            inkscape:showpageshadow="2"
            inkscape:pageopacity="0.0"
            inkscape:pagecheckerboard="0"
            inkscape:deskcolor="#d1d1d1"
            inkscape:document-units="px"
            inkscape:zoom="0.63559753"
            inkscape:cx="693.83529"
            inkscape:cy="354.78426"
            inkscape:window-width="2560"
            inkscape:window-height="1326"
            inkscape:window-x="0"
            inkscape:window-y="25"
            inkscape:window-maximized="1"
            inkscape:current-layer="layer1"/>
    <defs id="defs1">
        <inkscape:perspective
                sodipodi:type="inkscape:persp3d"
                inkscape:vp_x="0 : 42.999997 : 1"
                inkscape:vp_y="0 : 399.99997 : 0"
                inkscape:vp_z="84.000018 : 42.999997 : 1"
                inkscape:persp3d-origin="42.000001 : 23.199996 : 1"
                id="perspective8"/>
    </defs>
    <g inkscape:label="图层 1"
       inkscape:groupmode="layer"
       id="layer1"
       transform="translate(0.66034608,0.12583162)">
        <path
                d="m 34.429939,40.408902 c -1.006058,0.04187 -1.830559,0.388014 -2.473648,1.027947 -0.64412,0.639949 -0.986421,1.457844 -1.026293,2.464966 v 20.394 c 0,0.965156 0.342301,1.783896 1.026293,2.465793 0.683992,0.681899 1.508508,1.027947 2.473648,1.027947 h 33.606423 c 0.965157,0 1.783794,-0.346048 2.444709,-1.027947 0.660917,-0.681897 1.018022,-1.500637 1.059987,-2.465793 v -20.394 c -0.04187,-1.007122 -0.388479,-1.825017 -1.122826,-2.464966 -0.545518,-0.639933 -1.469179,-0.985983 -2.38187,-1.027947 z m 6.939318,6.923815 c 0.965142,0.04187 1.783777,0.388116 2.444708,1.049031 0.660916,0.660915 1.017195,1.47889 1.05916,2.433547 v 3.493533 c -0.04187,0.965156 -0.387999,1.772822 -1.027947,2.433753 -0.650416,0.660914 -1.468814,0.996529 -2.475921,0.996529 -1.007122,0 -1.835987,-0.335615 -2.475921,-0.996529 -0.639932,-0.660931 -0.985775,-1.468597 -1.027741,-2.433753 v -3.493533 c 0.04187,-0.954657 0.398245,-1.772632 1.05916,-2.433547 0.660917,-0.660915 1.384932,-1.007065 2.444502,-1.049031 z m 20.089936,0 c 0.965156,0.04187 1.783792,0.388116 2.444708,1.049031 0.660915,0.660915 1.017195,1.47889 1.05916,2.433547 v 3.493533 c -0.04187,0.965156 -0.388015,1.772822 -1.027947,2.433753 -0.639949,0.660914 -1.468801,0.996529 -2.475921,0.996529 -1.007108,0 -1.825491,-0.335615 -2.475922,-0.996529 -0.734363,-0.660931 -0.986131,-1.468597 -1.017612,-2.433753 v -3.493533 c 0.0314,-0.954657 0.388117,-1.772632 1.049032,-2.433547 0.660916,-0.660915 1.479345,-1.007065 2.444502,-1.049031 z"
                style="display:inline;stroke-width:0.0773764;fill:#20b0e3;fill-opacity:1"
                id="path10"/>
        <path
                d="m 48.014019,12.027999 c -7.906152,0.438147 -15.063926,3.030223 -21.378126,7.809549 -6.829628,5.169516 -11.517867,11.871333 -13.985503,20.09221 -0.797262,2.656255 -1.311035,5.370434 -1.476292,8.144619 -0.0093,0.157955 -0.06601,0.312401 -0.100459,0.468808 v 4.770769 c 0.105217,0.890224 0.208954,1.780497 0.316053,2.670431 0.591373,4.914205 2.07034,9.544247 4.46505,13.877189 1.868402,3.380757 4.286963,6.329152 6.914307,9.154376 1.826773,1.964511 3.898802,3.568339 6.104433,5.017781 3.50856,2.305528 7.320386,3.960399 11.438888,4.831127 1.886589,0.398984 3.797103,0.693673 5.705492,0.976891 0.972773,0.144133 1.964876,0.156631 2.94783,0.235231 0.0572,0.0048 0.110093,0.06625 0.164744,0.101286 h 31.442628 c 0.608331,-0.149286 1.222236,-0.279367 1.823558,-0.451652 1.489616,-0.426957 2.86576,-1.117771 3.977432,-2.185913 1.680686,-1.614785 2.897278,-3.539014 3.373644,-5.864448 0.07355,-0.359982 0.07851,-0.734045 0.130224,-1.099261 0.02317,-0.163552 0.08384,-0.321591 0.127744,-0.482245 v -1.409526 c -0.07624,-0.402904 -0.160698,-0.803578 -0.226549,-1.208195 -0.502038,-3.092613 -2.152821,-5.426416 -4.721572,-7.154292 -0.204042,-0.137761 -0.407399,-0.276466 -0.609989,-0.416305 -0.01365,-0.009 -0.02099,-0.02872 -0.06656,-0.0926 0.109992,-0.224922 0.228333,-0.480589 0.357601,-0.729878 2.50717,-4.834673 3.956376,-9.962832 4.311261,-15.401437 C 89.67632,44.089538 87.165113,35.384456 81.412703,27.706215 75.302727,19.550685 67.150263,14.551984 57.126641,12.635507 54.113727,12.059554 51.06632,11.858908 48.014019,12.027999 Z M 36.721685,25.66913 c 0.923205,0 1.689496,0.300837 2.297948,0.902477 l 7.689659,7.280383 h 9.231891 l 7.81513,-7.280383 c 0.639933,-0.60164 1.426654,-0.902477 2.349831,-0.902477 0.923191,0 1.689466,0.300837 2.297948,0.902477 0.597968,0.601866 0.902477,1.363802 0.902477,2.286992 0,0.92213 -0.304509,1.684422 -0.902477,2.285546 L 65.74937,33.85199 h 3.074127 c 2.769558,0.08071 5.035437,1.022566 6.78739,2.737817 1.751953,1.898833 2.559898,4.164802 2.444501,6.892396 v 21.233845 c -0.04187,2.769573 -0.96507,5.045502 -2.779985,6.828937 -1.804403,1.783419 -4.101767,2.717345 -6.871311,2.801276 H 34.006605 c -2.774808,-0.0839 -5.056969,-1.028395 -6.847747,-2.853779 -1.789518,-1.8254 -2.724747,-4.227781 -2.805203,-7.196667 V 43.482203 c 0.08042,-2.727594 1.015685,-4.993563 2.805203,-6.892396 1.790778,-1.715251 4.072939,-2.657043 6.847747,-2.737817 h 3.082603 l -2.659269,-2.707845 c -0.603216,-0.601124 -0.905578,-1.363416 -0.905578,-2.285546 0,-0.92319 0.302362,-1.685126 0.905578,-2.286992 0.603219,-0.60164 1.368569,-0.902477 2.291746,-0.902477 z"
                style="display:inline;stroke-width:0.0773764;fill:#20b0e3;fill-opacity:1"
                id="path11"/>
    </g>
</svg>
